<svg width="24" height="24" viewBox="0 0 24 24" fill="none" xmlns="http://www.w3.org/2000/svg">
<rect width="24" height="24" rx="12" fill="#8A83EC"/>
<path fill-rule="evenodd" clip-rule="evenodd" d="M17.3821 11.4994L16.4303 12.6176V15.9887C15.5424 16.749 14.4164 17.0647 13.1796 17.0647C10.1887 17.0647 7.98411 14.8687 7.98411 12C7.98411 9.13129 10.1887 6.93527 13.1796 6.93527C14.5394 6.93527 15.6177 7.29117 16.601 8.24323L16.7646 8.40162L17.3623 7.7043L17.2242 7.564C16.1803 6.50292 14.8119 6 13.1635 6C9.63481 6 7.00005 8.55833 7.00005 12C7.00005 15.4417 9.63482 18 13.1637 18C14.7595 18 16.2553 17.4959 17.3168 16.4689L17.3821 16.4057V11.4994ZM15.3988 16.8701C15.8486 16.682 16.2673 16.4241 16.6445 16.0858L16.6448 16.072V16.0857C16.2675 16.424 15.8487 16.682 15.3988 16.8701ZM11.0243 7.12523C11.677 6.86393 12.4034 6.72089 13.1798 6.72089C14.5855 6.72089 15.7205 7.0921 16.7502 8.0891L16.75 8.08929C16.698 8.03893 16.6458 7.99018 16.5932 7.94299C15.605 7.05568 14.5143 6.72099 13.1796 6.72099C12.4033 6.72099 11.677 6.86399 11.0243 7.12523ZM17.1676 12.0822L17.1678 12.0819V12.0817L17.1676 12.0822ZM15.4751 17.3781C14.7666 17.6498 13.981 17.7857 13.1637 17.7857C9.74759 17.7857 7.21433 15.3178 7.21433 12C7.21433 9.55051 8.59511 7.56429 10.6924 6.69241C8.59525 7.56434 7.21458 9.5505 7.21458 11.9999C7.21458 15.3177 9.74784 17.7856 13.164 17.7856C13.9812 17.7856 14.7666 17.6498 15.4751 17.3781Z" fill="white"/>
<path d="M16.4303 12.6176L16.0495 12.2935L15.9303 12.4336V12.6176H16.4303ZM17.3821 11.4994H17.8821V10.1408L17.0014 11.1753L17.3821 11.4994ZM16.4303 15.9887L16.7555 16.3685L16.9303 16.2188V15.9887H16.4303ZM16.601 8.24323L16.2532 8.60244V8.60244L16.601 8.24323ZM16.7646 8.40162L16.4168 8.76083L16.7984 9.13039L17.1442 8.72701L16.7646 8.40162ZM17.3623 7.7043L17.7419 8.0297L18.0408 7.68101L17.7187 7.35364L17.3623 7.7043ZM17.2242 7.564L16.8678 7.91467V7.91467L17.2242 7.564ZM17.3168 16.4689L17.6645 16.8282L17.3168 16.4689ZM17.3821 16.4057L17.7298 16.7651L17.8821 16.6177V16.4057H17.3821ZM16.6445 16.0858L16.9783 16.4581L17.1405 16.3127L17.1445 16.0948L16.6445 16.0858ZM15.3988 16.8701L15.2059 16.4088L15.5916 17.3314L15.3988 16.8701ZM16.6448 16.072H17.1448L16.1449 16.063L16.6448 16.072ZM16.6448 16.0857L16.9786 16.458L17.1448 16.309V16.0857H16.6448ZM11.0243 7.12523L10.8384 6.66104L11.21 7.58944L11.0243 7.12523ZM16.7502 8.0891L17.13 8.41426L17.4359 8.057L17.098 7.72988L16.7502 8.0891ZM16.75 8.08929L16.4022 8.44849L16.7842 8.81829L17.1299 8.41444L16.75 8.08929ZM16.5932 7.94299L16.9273 7.57095L16.9273 7.57095L16.5932 7.94299ZM17.1676 12.0822L16.7219 11.8556L17.5485 12.4061L17.1676 12.0822ZM17.1678 12.0819L17.5488 12.4058L17.6678 12.2657V12.0819H17.1678ZM17.1678 12.0817H17.6678L16.7221 11.8551L17.1678 12.0817ZM15.4751 17.3781L15.6542 17.845L15.2962 16.9113L15.4751 17.3781ZM10.6924 6.69241L10.8844 7.15409L10.5005 6.23071L10.6924 6.69241ZM16.811 12.9417L17.7628 11.8235L17.0014 11.1753L16.0495 12.2935L16.811 12.9417ZM16.9303 15.9887V12.6176H15.9303V15.9887H16.9303ZM13.1796 17.5647C14.5008 17.5647 15.7537 17.2264 16.7555 16.3685L16.105 15.6089C15.3312 16.2717 14.332 16.5647 13.1796 16.5647V17.5647ZM7.48411 12C7.48411 15.1538 9.92155 17.5647 13.1796 17.5647V16.5647C10.4558 16.5647 8.48411 14.5837 8.48411 12H7.48411ZM13.1796 6.43527C9.92155 6.43527 7.48411 8.84623 7.48411 12H8.48411C8.48411 9.41635 10.4558 7.43527 13.1796 7.43527V6.43527ZM16.9488 7.88402C15.8571 6.827 14.6465 6.43527 13.1796 6.43527V7.43527C14.4323 7.43527 15.3783 7.75535 16.2532 8.60244L16.9488 7.88402ZM17.1124 8.04241L16.9488 7.88402L16.2532 8.60244L16.4168 8.76083L17.1124 8.04241ZM16.9826 7.37891L16.3849 8.07622L17.1442 8.72701L17.7419 8.0297L16.9826 7.37891ZM16.8678 7.91467L17.0058 8.05497L17.7187 7.35364L17.5806 7.21333L16.8678 7.91467ZM13.1635 6.5C14.7027 6.5 15.9339 6.96545 16.8678 7.91467L17.5806 7.21333C16.4266 6.04039 14.9212 5.5 13.1635 5.5V6.5ZM7.50005 12C7.50005 8.84742 9.89783 6.5 13.1635 6.5V5.5C9.37179 5.5 6.50005 8.26925 6.50005 12H7.50005ZM13.1637 17.5C9.89782 17.5 7.50005 15.1526 7.50005 12H6.50005C6.50005 15.7308 9.37181 18.5 13.1637 18.5V17.5ZM16.9692 16.1096C16.0199 17.0279 14.6588 17.5 13.1637 17.5V18.5C14.8601 18.5 16.4907 17.9639 17.6645 16.8282L16.9692 16.1096ZM17.0345 16.0464L16.9692 16.1096L17.6645 16.8282L17.7298 16.7651L17.0345 16.0464ZM16.8821 11.4994V16.4057H17.8821V11.4994H16.8821ZM16.3108 15.7135C15.9771 16.0126 15.6066 16.2413 15.2059 16.4088L15.5917 17.3314C16.0906 17.1228 16.5574 16.8355 16.9783 16.4581L16.3108 15.7135ZM16.1449 16.063L16.1446 16.0768L17.1445 16.0948L17.1447 16.081L16.1449 16.063ZM17.1448 16.0857V16.072H16.1448V16.0857H17.1448ZM15.5916 17.3314C16.0906 17.1228 16.5576 16.8354 16.9786 16.458L16.311 15.7134C15.9773 16.0126 15.6067 16.2412 15.206 16.4088L15.5916 17.3314ZM13.1798 6.22089C12.3416 6.22089 11.552 6.37541 10.8384 6.66104L11.2101 7.58943C11.8021 7.35245 12.4652 7.22089 13.1798 7.22089V6.22089ZM17.098 7.72988C15.9598 6.62789 14.6925 6.22089 13.1798 6.22089V7.22089C14.4785 7.22089 15.4811 7.55631 16.4024 8.44831L17.098 7.72988ZM17.1299 8.41444L17.13 8.41426L16.3704 7.76394L16.3702 7.76413L17.1299 8.41444ZM16.2592 8.31503C16.307 8.35794 16.3547 8.40242 16.4022 8.44849L17.0979 7.73008C17.0414 7.67545 16.9846 7.62242 16.9273 7.57095L16.2592 8.31503ZM13.1796 7.22099C14.4156 7.22099 15.3795 7.52519 16.2592 8.31503L16.9273 7.57095C15.8305 6.58616 14.613 6.22099 13.1796 6.22099V7.22099ZM11.21 7.58944C11.802 7.35251 12.4651 7.22099 13.1796 7.22099V6.22099C12.3414 6.22099 11.552 6.37547 10.8385 6.66103L11.21 7.58944ZM17.5485 12.4061L17.5488 12.4058L16.7869 11.7581L16.7866 11.7584L17.5485 12.4061ZM17.6678 12.0819V12.0817H16.6678V12.0819H17.6678ZM16.7221 11.8551L16.7219 11.8556L17.6133 12.3088L17.6135 12.3083L16.7221 11.8551ZM13.1637 18.2857C14.0357 18.2857 14.8827 18.1408 15.6542 17.845L15.2961 16.9113C14.6505 17.1589 13.9263 17.2857 13.1637 17.2857V18.2857ZM6.71433 12C6.71433 15.6068 9.48444 18.2857 13.1637 18.2857V17.2857C10.0107 17.2857 7.71433 15.0289 7.71433 12H6.71433ZM10.5005 6.23071C8.2161 7.18036 6.71433 9.34911 6.71433 12H7.71433C7.71433 9.7519 8.97412 7.94821 10.8844 7.1541L10.5005 6.23071ZM7.71458 11.9999C7.71458 9.75189 8.97427 7.94825 10.8844 7.15409L10.5005 6.23072C8.21622 7.18043 6.71458 9.34912 6.71458 11.9999H7.71458ZM13.164 17.2856C10.011 17.2856 7.71458 15.0288 7.71458 11.9999H6.71458C6.71458 15.6067 9.48469 18.2856 13.164 18.2856V17.2856ZM15.2962 16.9113C14.6505 17.1588 13.9265 17.2856 13.164 17.2856V18.2856C14.0358 18.2856 14.8827 18.1408 15.6541 17.845L15.2962 16.9113Z" fill="white"/>
</svg>
